<svg id="legend" xmlns="http://www.w3.org/2000/svg" viewBox="0 0 297.6000061 297.6000061">
  <style>
    .st0{fill:#2f318f}
    .st1{fill:#d0a94a}
  </style>
  <path class="st0" d="M0 0h297.6v297.6H0z"/>
  <path class="st1" d="M84 40.8h48.6v189a5.4 5.4 0 0 0 5.4 5.4h101.872l-18.003 21.6H84l9.724-12.962A5.4 5.4 0 0 0 94.8 240.6V57a5.4 5.4 0 0 0-1.076-3.238L84 40.8zm64.8 21.6c53.744 0 97.2 43.456 97.2 97.2 0 24.948-9.428 47.594-24.848 64.8H205.89c17.957-15.84 29.31-39.009 29.31-64.8 0-47.652-38.748-86.4-86.4-86.4-1.812 0-3.613.07-5.4.18V62.684c1.799-.1 3.574-.285 5.4-.285zM84 87.196v15.367c-13.407 15.219-21.6 35.183-21.6 57.037s8.194 41.814 21.6 57.038v15.398c-19.883-17.793-32.4-43.618-32.4-72.436 0-28.813 12.527-54.609 32.4-72.404z"/>
</svg>
<svg id="Csgo" xmlns="http://www.w3.org/2000/svg" viewBox="0 0 297.6 297.6"><style>.st0{fill:#ffa200}</style><path id="bg" class="st0" d="M0 0h297.6v297.6H0z"/><path d="M170.8 80h-6.7v-1.2c1.8 0 3-.4 2.2-2-1.2-2.4 4.1-2.3 4.9-1.8 1.4 1 .5 3.7-.4 5zm-9.2 1.6h8.1c-.9 1.4-3.4 6-5.1 6-.6-.9-2.7-3.9-3-6zm26.4-9.7c-.4.2-.8.4-1.3.5-2.6 3.6-1 3.2-5.5 6.2 0 6.1.2 6.7 1.6 12.1 0 .1 0 .3-.1.4s-.2.2-.3.2c-1.1.2-2.7.6-3.6.8 0 .2.5 3.6 0 6.2-.8 4-10.3 12.8-12.6 13.2-3.2.6-6.7-2.2-12.2-4.6-1.5-.7-6.6-4-9.3-4.9-2.2-.7-4.4 4.6-1.7 6.1 1.3.7 3.3 1.6 4 3.2 1.9 5-.3 24.1-4.2 27.9-1.9 0-3.4-1.7-4.8-1.3-2.5 1.4-.9 8.9 0 10.3 15.2 15.7 13.4 27.3 19.9 36 3 0 1 3.1 3.3 6.8.6 1.9-.2 5.1-.5 6.3v4.7c-.2.5-.3 1-.5 1.5v4.1c-.5 2-1 4.7-1.4 6.6-.9 4 2.6 7.1.5 10.8 0 2.3 0 1.9-1.4 3.7 0 3.6-.9 11.2 0 13.9.6 1.9 7.4 9.8 9.1 10.5 4.1 1.8 10.1 1.4 8.2 7.9-12 3.7-19.7-2.1-26-2.2l-.3 1.1c-4.1 0-7.4-1-8.3-1.3 0-1.1 1.3-9.6 1.8-10.9.5-.7.9-1.4 1.4-2.2.5-1.4-.5-12-.6-14.9-2.6-1.9-3.1-7.6-3.1-10.7-.7-2.4-.7-5.3-.9-8.5-.1-1.5-1-3.7-.4-5.5.4-1.3 1.8-1.8 2.2-2.9v-3.5c.7-3.7.5-5.5-1.8-7.7-5.6.1-6.4.3-9.5-4.4-1-1.5-8.8-13.9-9.6-14.2-6.5-2.8-5.2-1.7-8.1-6.8-.1 0-1.9.6-3.4 2.9-2.3 3.5-6.5 14.8-7.6 18.8-.7 2.2 0 4.7-1 6.5-.7 1.3-3 1.8-3.5 2.7-2.3 4.1-.6 3.8-4.9 6.7-.8 1-.8 2.5-1.4 3.7-.3.5-.7.9-1 1.4-.7 1.6.8 4.4.5 5.4-.8 2.6-1.7 5.2-2.8 7.6-2 4.7-1.7 11-3.7 13.9-1 1.5-3.5 0-5.3 1.2-.1 1-3.1 7.8-3.6 9.7v10.7c.6 1.8 2.1 3.5 1.6 5.8-.5 2.4-9 2.4-13.6 1.7-3.1-.4-4-2.7-4-5.3.1-3.1 6.3-23.3 6-24.6-4.8-5.4 1.3-10.9 3.1-15.9.9-2.4.3-5.8 1.3-8.1 1.7-3.1 3.4-6.1 5-9.2 3.1-2.9 1.7-3 3.4-5.6 1.4-2.2 3.2-3.8 2.2-7.2-2-6.9 2.4-16.7 2.7-24-.8-.8-3.4-.6-3.8-2.8-.7-4.5 1.7-12.4 3.2-13.2.7-.3 1.4 0 2-.4 0-3.4-3.3-22.1-.8-23.1 1.6-.6 5.2-.9 5.9-1.2 0-.8-.6-2.5-1.3-2.6-1.1-.2-3.4-.6-5.2-1-5.6-1.3-.4-23.4-.3-23.5 1.5-2 8.7.7 9.6-2.8 2.4-3.1-1.8-14.8 6.3-29.2 2.8-4.9 8-9.8 14.2-7.7 2.1.7.8 3.7 4.4.5.1-1.8-.8-3.4-1.3-4.9-6-18 14.4-27.7 28.7-17.4 1.6.6 2.5 1 3.7 1.9.8 4.1 4.8 11.3.8 16.1-1.6.4-3.7 1.3-4.9 2.2 0 1.6.2 3.2.5 4.1.3.9.8 1.2-.5 1.8-.2.1-.1.6 0 .8 3.3.7 6.9-.6 9.1-1.5h2.7v-3.4h1.3v-2.6h1.3V60h3.3v1.4h49.3V64h2.2v-9.4h1.8v7.6h4.2v4.3h13v-1.3h2.2v.6h6.2v3.6h-6.2v.6H231v-1.3h-13V70h-5.7v-.9h-2.5v2.6H188v.2z"/></svg>

<svg id="dota" xmlns="http://www.w3.org/2000/svg" viewBox="0 0 297.6 297.6"><style>.st0{fill:#d43b3b}.st1{fill-rule:evenodd;clip-rule:evenodd;fill:#fff}</style><path id="bg" class="st0" d="M0 0h297.6v297.6H0z"/><path class="st1" d="M89.6 167.5c1.9 1.2 3.1 2.3 4.9 3.8l14.7 13.6c3.1 2.9 10.9 10.9 13.9 14.4 2.1 2.4 3 2.6 4.5 5-.6.2-7.4 1.8-11.5 3.1-8.3 2.9-15.9 7.4-23.2 5-1.1-.3-6-5.1-8.3-6.7-1.3-.9-2.6-1.8-4.1-2.9-4.4-3.1-5.7-1 .2-14.6 1.6-3.5 2.8-6.8 4.3-10.3 1.4-2.9 3.1-7.9 4.6-10.4zM195.4 85c3.1 1.1 10.4 5.3 12.1 7.5 1.5 1.9 1.1 2.1.5 4.8l-3 23.4c-4.1.2-3-.3-5.5-2.1-4.3-2.9-19.1-13.8-23.8-17.6l-9.1-7.3c.7-.7-.2-.3 1.3-.7l13.5-3.1c7.1-1.7 8.2-2.2 14-4.9zM74.5 89.7c3.1-1.7 4.7-.4 10-4.2 1.4-1 4.6-.9 6.6-.7 2 .2 6.7 4.1 8.8 5.4 1.2.7 6.8 5 7.7 6.4l2.7 4.5c3.8.2 3.1 0 7.9 3.5l45.6 30.2c9.8 6.9 21.3 13.8 31.2 20.6l28.1 18.4c-.8 1.7-1.7 7.8-2.3 10.2-2.5 11.1-5.5 15.8-10.5 26.4-7.1.2-12.8.2-19.7.1-2.2 0-1.7.4-3-.7-4-4-11.5-12.6-15.6-16.7-1.4-1.4-2.7-2.6-4.1-4.2-11.4-12.1-6-8.5-8.3-11.6l-22.9-21.7c-5.3-5.1-10-10.6-15.4-16.4-1.4-1.5-2.1-2.9-3.5-4.2l-.4-.3c-.4-.4-.2-.2-.6-.7l-6.7-7.6c-1.2-1.1-1.1-1.1-1.9-2.1l-6-6.2c-1.3-1.4-2.3-2.8-3.6-4.3l-5.7-6.1c-.8-.8-1.5-1.2-2.3-2-2.7-2.8-5-5.5-7.8-8.4-2.3-2-7.6-6.4-8.3-7.6zm27.6-33.9l-47.1 1c-2.6 9.4 0 4.6 0 14.4V89c-.4 5.1-1.7 7.8-1.7 14.6 0 2.3-.5 7.6.6 9.4 2 3.2 1.9 5.9 2.7 10.5.7 4.1 1.6 3.6-.3 6.8l-.8 7.8 4 4v6.9c-2.4 2.2.2.7-4.8 4.3L55 174l5 3.6-1.1 17.7c-5.3 3.8-4.1 8.3-4 13l.7 17.7-1.2 9.1c11.8 3 9.2 2.1 22.7 2.1 11.9 0 10.4.1 22.1-1.3l.3 2c1.8-.1 3.7-.2 5.5-.4 5-.5 3-1.1 4.7-1.7 1.2-.4 14.7 2.6 16.8 3.1 1.2-1.3.6-.8 2.3-1.9.9 1.9 4.8 6.4 6.4 8.3l4.9-4.5 8.5 3.3 2.5-2.1c1 1.2 1.6 2.6 3.3 2.8 2.6.3 3-3.9 8.5-4l32.4-1.1 1.1-1.1 1.7-1.3c2.1 1.3 3.1 2.5 5.9 2.3 8.9-.6 4.2 2.1 15.8 1.6 2-.1 1.5-.6 3.2-1.2l3.7-.6c-.8-2.1-1.3-1.9-3-3.5l20.5 4.1c-.2-24.1-.2-53.5.1-78.2l-5.5.4c.2-1.6 2.6-1 2.8-4.2.2-4 .2-18.1-.4-21-.3-1.5-4.2-5.9-5.2-7.3 1.2-3.4 1.3-3.1 3.6-5.9-.2-1.8-.6-2.3-1.4-4.4l6-2c.1-3.5.5-17.3.2-21.7L242 72.1l1.8-5.9.1-6.1c-5.2-3-4.5-3.3-8.1-3.3-3.2 0-7.6-.2-10.6-.8-4-.9-2.9-1.6-7.3 2.9l-2-4.3c-6.2-.5-26.2-2.2-30.9-2.2-6 0-5.2.5-7.3 7.3l-8.7.9-1.2-3.8-7.9-.1.8-.9c1.6-1.5 1-.9 2.2-3.5h-31.7c-1.1 1.9-3 3.4-5.2 4.1-3.1 1.1-1.6-.7-3.6 1.2-1.5 1.3-1.7 1.2-4.1 1.2-3.1-.1-6.4-.2-9.5-.3-1.4-.1-3.1.1-4.4-.2-1.8-.6-1.2-1.1-2.3-2.5z"/></svg>

<svg id="rocket" xmlns="http://www.w3.org/2000/svg" viewBox="0 0 297.6000061 297.6000061"><style>.st0{fill:#fff}.st1{fill:url(#path22_1_)}.st2,.st3{opacity:.4;enable-background:new}.st3{fill:url(#path31_1_)}.st4{fill:url(#circle40_1_)}</style><path id="bg" d="M0 0h297.6v297.6H0z"/><g id="Symbol_2_"><path id="path7" class="st0" d="M257.434 77.33l-.387-4.25-3.863-2.705c-16.226-11.203-47.132-24.338-102.377-24.338-20.862 0-39.792 1.931-56.404 5.794-5.795-5.022-13.521-8.112-21.634-8.112-18.158 0-33.225 14.68-33.225 33.224 0 5.795 1.546 11.203 4.25 16.226.773 28.588 9.658 58.335 27.043 88.469 28.588 48.291 59.108 62.585 73.789 69.153 1.159.386 1.931.772 2.704 1.159l3.863 1.931 3.864-1.931c.772-.387 1.931-.773 2.704-1.16 15.067-6.567 45.2-20.861 73.016-69.152 30.52-52.927 27.816-91.56 26.657-104.309z"/><radialGradient id="path22_1_" cx="72.487" cy="36.517" r="184.572" gradientTransform="translate(0 39.8)" gradientUnits="userSpaceOnUse"><stop offset="0" stop-color="#00aeff"/><stop offset=".131" stop-color="#00a5f7"/><stop offset=".345" stop-color="#008de0"/><stop offset=".616" stop-color="#0065ba"/><stop offset=".928" stop-color="#002f87"/><stop offset="1" stop-color="#00217a"/></radialGradient><path id="path22" class="st1" d="M142.308 119.053s5.022.386 9.272 5.795l-2.318.386-1.16-.386s-3.476-4.25-5.794-5.795zm-7.727 23.952l-2.318-5.795h-.772l-3.864 4.636c2.705 2.318 6.954 1.16 6.954 1.16zm35.542-33.997l-1.931.773 2.318 4.25 7.726 2.704c-3.09-6.568-8.113-7.727-8.113-7.727zm-22.02 8.113c2.318 2.704 4.636 6.568 4.636 6.568 3.863-3.864 11.976-5.409 22.407-5.023-14.68-3.09-27.043-1.545-27.043-1.545zm-14.294-5.795s4.25 0 10.044 1.16c-3.863-2.705-10.044-4.25-10.044-4.25v3.09zm35.542 21.248l-6.568 5.795 5.022 1.545 5.023-5.408-2.705-1.16-.772-.772zm-43.655-30.52s2.704 1.546 3.09 1.546 5.795 1.931 8.113 2.704c1.932.773 3.09 0 3.477 0s6.954-3.863 6.954-3.863a130.858 130.858 0 0 0-11.203-3.864c-.387 0-10.431 3.477-10.431 3.477zm39.405 3.477c-.386-.772-1.159-.772-5.795-1.545-4.25-.386-8.113-.773-8.885-.773-.773 0-1.16.387-1.16.387s-2.317 1.545-4.249 2.704c-1.932 1.159-2.318 1.545-2.704 2.318-.387.386.772 1.931.772 1.931l3.091 3.864c.386 0 1.545.772 1.545.772s6.182-.386 10.045-.772h10.044c.387 0 0-1.546-.772-3.477-.773-1.546-1.932-5.409-1.932-5.409zm-36.701 4.25s.386 0 1.159.386c.773 0 1.159-.773 1.159-1.545 0-1.16-1.16-1.546-1.16-1.546h-.772l-1.159.387-.386 2.704h.386l.773-.386c-.386-.773-.386-1.16-.386-1.932 0-.386.772-1.159 1.159-1.159 0 0 .772 0 .386 1.545 0 1.546-1.16 1.546-1.16 1.546zm65.29 30.52l-3.091 4.25v.386h4.25c.772-2.705-1.16-4.636-1.16-4.636zm-77.266-20.09h-.773l-1.932-.386c-1.931-.386-1.159-3.863-1.159-3.863l-2.318.773c-.772-1.546-4.25-5.795-4.25-5.795l-.772 3.09c.387.387 2.318 3.477 2.704 4.25l-1.158 1.159s-.387.773-.387 1.159-.386.773-.386.773l-1.545.772h-.387l-5.408-4.25v3.091h.386c.386.773 1.159 2.318 3.09 3.091 1.546.773 3.478.773 4.25.386.773.387 1.16.387 1.545.773 1.546.773 1.932.386 1.932.386l2.318-.772h.386l.387-.387.772-1.545s3.864.386 5.409.386c1.545-2.318 6.568-5.795 10.045-6.181 3.477 0 9.271.773 13.907 5.409 4.25 4.636 3.091 10.817 3.091 10.817l8.5 2.704-3.864-2.704c-3.09-7.727-10.43-14.68-10.43-14.68s-1.933-.387-3.092-.387c-1.159-.386-1.931-1.159-1.931-1.159s-.387-.386-1.16-1.545l-.772-1.546s-.772-.772-1.931-1.545-5.41-1.159-7.727-1.545c-2.318-.387-2.318 0-2.318 0 6.568 1.545 8.5 1.931 8.886 2.318 0 0 .386.772.772 1.159-5.408-1.16-10.43-.387-11.59 0a3.51 3.51 0 0 1 0 3.863c-.772.773-3.09 1.932-3.09 1.932zm73.402 27.816l1.16 5.023s1.158-1.16 2.317-2.705 1.545-3.09 1.545-3.09l-4.635.386-.387.386zm-93.105-35.156l-.386 4.25h2.318l.386-2.704v1.545h.386v-2.318h-.386V112.1l3.477 1.931.386.773.773.773h.773l.386-.387v-.386c-2.318 0-2.318-1.159-2.318-1.159s.386-2.704.773-3.477c.386-.773 1.931-.386 1.931-.386l-.386-.387h-.773c-.772-.386-3.09-1.931-3.863-2.317v-.387l.386-.386v-1.545h.387c0-.387.386-.387.386-.773.773 0 6.567-1.16 6.567-1.16l-5.408-1.158v-.386c-1.545-.387-2.704-.773-3.477-1.16-1.932 2.319-2.704 5.41-2.704 5.41s-.387 5.408-.387 6.18c-.386.773.773 1.16.773 1.16zm90.787 30.52l.773 1.16.386-.387 3.09-3.863v-.387c-1.545 0-4.249 3.477-4.249 3.477zm-9.272-6.954l-2.318-.772-5.408 6.181 3.863 1.16c.773-3.092 3.863-6.569 3.863-6.569zm8.113 8.886c-1.931 3.863-1.545 6.568-1.545 6.568l1.932-4.25v-.773c.386 0 0-.772-.387-1.545zm-1.931-25.111s-.773 1.545-1.16 1.931c-.386.387-3.09.773-4.635 1.16-1.546.772-4.25 1.93-5.023 2.704-.386.386-.386 1.545-.386 1.931 0 0 .773.387 1.159.387l-3.477 3.09.773.773 8.499 2.704c1.932-1.545 4.636-1.931 4.636-1.931-1.545-.773-8.113-3.477-10.045-4.25 0 0-1.159-.386-1.159-.773v-1.159s5.023-3.863 12.75-3.863l1.158-2.318-3.09-.386zm5.022 33.997l-1.545-4.636h-.387l-2.318 4.25.387.386c1.931.772 3.863 0 3.863 0zm-58.336-44.042l1.16.386s.772 0 .772-.772v-1.546l-1.16-.772-1.544-.387c.386.387.386.773.386.773h.386c0-.386.387-.386.387 0 0 0 .772.386.386 1.545.386.387-.386.773-.773.773zm-3.477 21.248c-2.704 5.022-.772 8.5-.772 8.5l3.477-5.023v-.772l-2.705-2.705zm-25.111-29.747l4.636 1.159c.386 0 3.09-.386 3.09-.386l-7.34-1.932-.386 1.159zm2.704-1.16c6.181.774 7.34 1.933 7.34 1.933s2.318-.387 3.477-.387c-1.931-1.545-10.43-4.25-10.43-4.25s-.387 1.16-.387 2.705zm9.272 11.977c-1.159.773-2.318 3.09-1.932 5.022s.773 1.932 1.932 1.932c-1.932-.773-1.545-3.863 0-5.795 1.16-1.545 2.318-.386 2.318-.386s-1.159-1.546-2.318-.773zm-27.43 57.177c-5.022 0-10.816 1.931-7.34 7.34 28.589 49.064 58.722 60.654 71.471 66.835 5.795-2.704 15.067-6.954 26.27-14.68 6.568-4.25 5.796-10.818 4.25-15.067-8.113-20.09-52.54-42.883-94.65-44.428zm161.1-91.56c-11.59-8.113-40.178-22.794-96.969-22.794-19.702 0-36.315 1.932-49.45 4.636 3.09 5.023 4.636 10.818 4.636 16.999 0 8.5-3.09 16.226-8.113 22.02 1.16.387 2.705.773 4.636 1.16l.773-1.932s.772 0 1.159.386c0-1.931 1.159-1.931 1.159-1.931s0-.387.386-.387c1.932.387 7.34 3.09 9.658 4.25s2.318 1.545 2.318 1.545 5.409 0 6.954-.386c1.546 0 4.25-1.16 8.113-2.318 3.863-1.16 4.636-1.545 5.409-1.545s7.726.386 13.908 1.159c6.18.772 11.976 3.09 13.135 3.863l1.931.386.387-1.159-3.09-1.159s.385-1.931.385-2.318c0-.386.387-.772.773-.772s3.863.772 5.022 1.159 5.023 3.09 5.409 3.09c.386 0 .386.387.386.387 0 .772-.772 2.318-.772 2.318l-1.16-.387 1.16.387s1.159.386 1.545.772c.386.386 1.545 1.16 2.704 2.318 1.16.773.773 1.932.773 1.932l2.704 2.704v1.16l6.568 6.567v.386l-3.09 1.932s4.249-.387 7.34 1.159c3.09 1.545 3.476 2.318 3.476 3.09-.772.387-1.931.773-1.931.773-2.318.773-8.113 4.636-8.113 4.636v.386l3.09.773c3.477-3.09 9.659-4.25 14.295-3.477 15.84 3.09 26.656 13.521 28.974 22.407 0 .386.387 1.159.387 1.545 15.839-37.087 14.294-63.744 13.135-75.72zm-55.632 56.404c.387.386.773.386 1.16.772 2.317 1.546 3.476 2.318 3.863 5.795.386 2.705-.387 6.568-2.318 10.045 10.817 7.34 25.884 1.545 31.679 7.34-1.16-14.68-22.794-29.36-34.384-23.952zm-88.855-18.93l-.773.386v3.09l.773-.386v-3.09zm111.649 47.904c-8.113 0-16.226-2.704-22.02-9.658v.387c-3.478 4.636-7.341 4.636-8.886 4.636s-6.568-2.318-8.5-4.636c-1.931-2.318-1.931-6.568-1.931-6.568l-7.727-2.704-9.658-5.409-1.545-.386c-3.091 1.545-6.954.386-10.431-2.318-.387 1.545-2.318 5.408-4.636 7.34-2.318 1.932-6.954 4.636-10.431 4.636-3.477 0-11.204-3.863-13.522-9.272-2.318-5.409 0-11.203 0-11.203l-3.863-.773-1.545-1.932s-4.636 3.864-9.658 2.318-9.272-5.795-10.431-9.658c-.773-3.863.386-7.34.772-7.727-.772-2.704-.772-4.25-.772-4.25h-.387v-1.158c-5.022 3.477-10.817 5.022-16.998 5.022-6.954 0-13.522-2.318-18.93-5.795.772 8.5 3.09 18.544 6.181 29.747 4.25 15.454 18.158 20.476 39.02 23.953 45.972 7.34 90.014 42.496 86.923 64.13 11.59-9.658 23.953-23.952 36.315-45.2 5.022-8.113.386-13.522-7.34-13.522zM92.47 110.167l-.386 4.25h2.704v-.387h-.386v-.386h-.386l.386-.773.386-1.931-.386-.387v-.772l.386-.387.387-4.635-1.932-1.16c.773-3.09 2.704-5.794 2.704-5.794H94.79c-1.931 2.318-2.704 5.408-2.704 5.408s-.386 5.023-.386 5.795c0 1.16.772 1.16.772 1.16zm42.497 25.884l1.931 6.181c3.863-2.704 4.636-6.953 4.636-6.953l-6.181.386-.386.386zm3.476-9.658l-3.09 5.409.386.386 6.181.386c0-4.25-3.477-6.181-3.477-6.181zm-38.632-11.976l-.387 2.318h.387v-2.318zm29.36 14.68l3.091 2.318.773-.386 3.477-5.409c-4.25-.386-7.34 3.477-7.34 3.477zm-28.588-14.294l-.386-.386v2.704h.386v-2.318zm1.16.773l-.387 2.704h.386v-2.704zm.772.386l-.386 2.704h.386v-2.704zm-1.545-.773l-.387 2.705h.387v-2.705z"/><path id="path24" class="st2" d="M248.162 78.102c1.159 14.294 3.09 49.45-25.498 98.9-28.202 49.064-58.722 60.654-71.47 66.835v-7.34c23.565-12.75 44.04-33.225 60.267-65.676 18.93-37.474 21.248-67.994 19.702-83.447l16.999-9.272z"/><linearGradient id="path31_1_" gradientUnits="userSpaceOnUse" x1="101.743" y1="31.541" x2="248.405" y2="31.541" gradientTransform="translate(0 39.8)"><stop offset="0" stop-color="#fff"/><stop offset="1" stop-color="#fff" stop-opacity="0"/></linearGradient><path id="path31" class="st3" d="M248.162 78.102c-11.59-8.113-40.178-22.794-96.969-22.794-19.702 0-36.315 1.932-49.45 4.636 2.705 4.25 4.25 9.272 4.636 14.68 14.68-2.703 30.52-4.249 47.519-3.862 36.314.386 65.675 8.499 77.652 16.612l16.612-9.272"/><radialGradient id="circle40_1_" cx="66.699" cy="27.489" r="32.011" gradientTransform="translate(0 39.8)" gradientUnits="userSpaceOnUse"><stop offset="0" stop-color="#fff"/><stop offset=".679" stop-color="#7a7a7a"/><stop offset="1" stop-color="#404040"/></radialGradient><circle id="circle40" class="st4" cx="73.155" cy="76.943" r="23.952"/></g></svg>

<svg version="1.1" id="Valorant" xmlns="http://www.w3.org/2000/svg" xmlns:xlink="http://www.w3.org/1999/xlink" x="0px" y="0px" viewBox="0 0 297.6000061 297.6000061" style="enable-background:new 0 0 297.6000061 297.6000061;" xml:space="preserve">
<style type="text/css">
	.st0{fill:#FF4654;}
	.st1{fill:#111111;}
</style>
<path class="st0" d="M0,0h297.6000061v297.6000061H0V0z"/>
<g>
	<g>
		<path class="st1" d="M248.8500061,145.6802826V67.8802719c0-1.1999969-1.5-1.6999969-2.2999878-0.8000031l-85,106.2000046    c-0.6999969,0.8000031-0.1000061,2.1000061,1,2.1000061h61.3999939c1.6999969,0,3.1999969-0.8000031,4.1999969-2.1000061    l19.4000092-24.1999969C248.3500061,148.1802826,248.8500061,146.9802856,248.8500061,145.6802826L248.8500061,145.6802826z     M50.0500031,149.1802826l63.8000031,79.7999878c1,1.2999878,2.6000061,2,4.3000031,2h61.4000092    c1.1000061,0,1.6999969-1.2000122,1-2L51.0500031,67.180275C50.25,66.2802811,48.75,66.7802811,48.75,67.980278v77.8000107    C48.8500061,146.9802856,49.2500076,148.1802826,50.0500031,149.1802826L50.0500031,149.1802826z"/>
	</g>
</g>
</svg>



					<svg id="plus"  xmlns="http://www.w3.org/2000/svg" width="16" height="16" fill="currentColor" class="plus" viewBox="0 0 16 16">
					<path d="M8 4a.5.5 0 0 1 .5.5v3h3a.5.5 0 0 1 0 1h-3v3a.5.5 0 0 1-1 0v-3h-3a.5.5 0 0 1 0-1h3v-3A.5.5 0 0 1 8 4z"/>
				  </svg>
				
				</div>
				 


						
							
							<svg id="discord"  xmlns="http://www.w3.org/2000/svg" width="16" height="16" fill="currentColor" class="discord" viewBox="0 0 16 16">
		  <path d="M13.545 2.907a13.227 13.227 0 0 0-3.257-1.011.05.05 0 0 0-.052.025c-.141.25-.297.577-.406.833a12.19 12.19 0 0 0-3.658 0 8.258 8.258 0 0 0-.412-.833.051.051 0 0 0-.052-.025c-1.125.194-2.22.534-3.257 1.011a.041.041 0 0 0-.021.018C.356 6.024-.213 9.047.066 12.032c.001.014.01.028.021.037a13.276 13.276 0 0 0 3.995 2.02.05.05 0 0 0 .056-.019c.308-.42.582-.863.818-1.329a.05.05 0 0 0-.01-.059.051.051 0 0 0-.018-.011 8.875 8.875 0 0 1-1.248-.595.05.05 0 0 1-.02-.066.051.051 0 0 1 .015-.019c.084-.063.168-.129.248-.195a.05.05 0 0 1 .051-.007c2.619 1.196 5.454 1.196 8.041 0a.052.052 0 0 1 .053.007c.08.066.164.132.248.195a.051.051 0 0 1-.004.085 8.254 8.254 0 0 1-1.249.594.05.05 0 0 0-.03.03.052.052 0 0 0 .003.041c.24.465.515.909.817 1.329a.05.05 0 0 0 .056.019 13.235 13.235 0 0 0 4.001-2.02.049.049 0 0 0 .021-.037c.334-3.451-.559-6.449-2.366-9.106a.034.034 0 0 0-.02-.019Zm-8.198 7.307c-.789 0-1.438-.724-1.438-1.612 0-.889.637-1.613 1.438-1.613.807 0 1.45.73 1.438 1.613 0 .888-.637 1.612-1.438 1.612Zm5.316 0c-.788 0-1.438-.724-1.438-1.612 0-.889.637-1.613 1.438-1.613.807 0 1.451.73 1.438 1.613 0 .888-.631 1.612-1.438 1.612Z"/>
		</svg>
					

					
							
							<svg id="shop" xmlns="http://www.w3.org/2000/svg" width="16" height="16" fill="currentColor" class="shop" viewBox="0 0 16 16">
		  <path d="M2.97 1.35A1 1 0 0 1 3.73 1h8.54a1 1 0 0 1 .76.35l2.609 3.044A1.5 1.5 0 0 1 16 5.37v.255a2.375 2.375 0 0 1-4.25 1.458A2.371 2.371 0 0 1 9.875 8 2.37 2.37 0 0 1 8 7.083 2.37 2.37 0 0 1 6.125 8a2.37 2.37 0 0 1-1.875-.917A2.375 2.375 0 0 1 0 5.625V5.37a1.5 1.5 0 0 1 .361-.976l2.61-3.045zm1.78 4.275a1.375 1.375 0 0 0 2.75 0 .5.5 0 0 1 1 0 1.375 1.375 0 0 0 2.75 0 .5.5 0 0 1 1 0 1.375 1.375 0 1 0 2.75 0V5.37a.5.5 0 0 0-.12-.325L12.27 2H3.73L1.12 5.045A.5.5 0 0 0 1 5.37v.255a1.375 1.375 0 0 0 2.75 0 .5.5 0 0 1 1 0zM1.5 8.5A.5.5 0 0 1 2 9v6h1v-5a1 1 0 0 1 1-1h3a1 1 0 0 1 1 1v5h6V9a.5.5 0 0 1 1 0v6h.5a.5.5 0 0 1 0 1H.5a.5.5 0 0 1 0-1H1V9a.5.5 0 0 1 .5-.5zM4 15h3v-5H4v5zm5-5a1 1 0 0 1 1-1h2a1 1 0 0 1 1 1v3a1 1 0 0 1-1 1h-2a1 1 0 0 1-1-1v-3zm3 0h-2v3h2v-3z"/>
		</svg>
					
			
						
							
							<svg id="hdd" xmlns="http://www.w3.org/2000/svg" width="16" height="16" fill="currentColor" class="hdd-rack" viewBox="0 0 16 16">
		  <path d="M4.5 5a.5.5 0 1 0 0-1 .5.5 0 0 0 0 1zM3 4.5a.5.5 0 1 1-1 0 .5.5 0 0 1 1 0zm2 7a.5.5 0 1 1-1 0 .5.5 0 0 1 1 0zm-2.5.5a.5.5 0 1 0 0-1 .5.5 0 0 0 0 1z"/>
		  <path d="M2 2a2 2 0 0 0-2 2v1a2 2 0 0 0 2 2h1v2H2a2 2 0 0 0-2 2v1a2 2 0 0 0 2 2h12a2 2 0 0 0 2-2v-1a2 2 0 0 0-2-2h-1V7h1a2 2 0 0 0 2-2V4a2 2 0 0 0-2-2H2zm13 2v1a1 1 0 0 1-1 1H2a1 1 0 0 1-1-1V4a1 1 0 0 1 1-1h12a1 1 0 0 1 1 1zm0 7v1a1 1 0 0 1-1 1H2a1 1 0 0 1-1-1v-1a1 1 0 0 1 1-1h12a1 1 0 0 1 1 1zm-3-4v2H4V7h8z"/>
		</svg>
				
				
					
						
							
							<svg id="circle" xmlns="http://www.w3.org/2000/svg" width="16" height="16" fill="currentColor" class="bi bi-exclamation-circle" viewBox="0 0 16 16">
		  <path d="M8 15A7 7 0 1 1 8 1a7 7 0 0 1 0 14zm0 1A8 8 0 1 0 8 0a8 8 0 0 0 0 16z"/>
		  <path d="M7.002 11a1 1 0 1 1 2 0 1 1 0 0 1-2 0zM7.1 4.995a.905.905 0 1 1 1.8 0l-.35 3.507a.552.552 0 0 1-1.1 0L7.1 4.995z"/>
		</svg>