<svg id="Layer_1" xmlns="http://www.w3.org/2000/svg" viewBox="0 0 297.6000061 297.6000061"><style>.st0{fill:#fff}.st1{fill:url(#path22_1_)}.st2,.st3{opacity:.4;enable-background:new}.st3{fill:url(#path31_1_)}.st4{fill:url(#circle40_1_)}</style><path id="bg" d="M0 0h297.6v297.6H0z"/><g id="Symbol_2_"><path id="path7" class="st0" d="M257.434 77.33l-.387-4.25-3.863-2.705c-16.226-11.203-47.132-24.338-102.377-24.338-20.862 0-39.792 1.931-56.404 5.794-5.795-5.022-13.521-8.112-21.634-8.112-18.158 0-33.225 14.68-33.225 33.224 0 5.795 1.546 11.203 4.25 16.226.773 28.588 9.658 58.335 27.043 88.469 28.588 48.291 59.108 62.585 73.789 69.153 1.159.386 1.931.772 2.704 1.159l3.863 1.931 3.864-1.931c.772-.387 1.931-.773 2.704-1.16 15.067-6.567 45.2-20.861 73.016-69.152 30.52-52.927 27.816-91.56 26.657-104.309z"/><radialGradient id="path22_1_" cx="72.487" cy="36.517" r="184.572" gradientTransform="translate(0 39.8)" gradientUnits="userSpaceOnUse"><stop offset="0" stop-color="#00aeff"/><stop offset=".131" stop-color="#00a5f7"/><stop offset=".345" stop-color="#008de0"/><stop offset=".616" stop-color="#0065ba"/><stop offset=".928" stop-color="#002f87"/><stop offset="1" stop-color="#00217a"/></radialGradient><path id="path22" class="st1" d="M142.308 119.053s5.022.386 9.272 5.795l-2.318.386-1.16-.386s-3.476-4.25-5.794-5.795zm-7.727 23.952l-2.318-5.795h-.772l-3.864 4.636c2.705 2.318 6.954 1.16 6.954 1.16zm35.542-33.997l-1.931.773 2.318 4.25 7.726 2.704c-3.09-6.568-8.113-7.727-8.113-7.727zm-22.02 8.113c2.318 2.704 4.636 6.568 4.636 6.568 3.863-3.864 11.976-5.409 22.407-5.023-14.68-3.09-27.043-1.545-27.043-1.545zm-14.294-5.795s4.25 0 10.044 1.16c-3.863-2.705-10.044-4.25-10.044-4.25v3.09zm35.542 21.248l-6.568 5.795 5.022 1.545 5.023-5.408-2.705-1.16-.772-.772zm-43.655-30.52s2.704 1.546 3.09 1.546 5.795 1.931 8.113 2.704c1.932.773 3.09 0 3.477 0s6.954-3.863 6.954-3.863a130.858 130.858 0 0 0-11.203-3.864c-.387 0-10.431 3.477-10.431 3.477zm39.405 3.477c-.386-.772-1.159-.772-5.795-1.545-4.25-.386-8.113-.773-8.885-.773-.773 0-1.16.387-1.16.387s-2.317 1.545-4.249 2.704c-1.932 1.159-2.318 1.545-2.704 2.318-.387.386.772 1.931.772 1.931l3.091 3.864c.386 0 1.545.772 1.545.772s6.182-.386 10.045-.772h10.044c.387 0 0-1.546-.772-3.477-.773-1.546-1.932-5.409-1.932-5.409zm-36.701 4.25s.386 0 1.159.386c.773 0 1.159-.773 1.159-1.545 0-1.16-1.16-1.546-1.16-1.546h-.772l-1.159.387-.386 2.704h.386l.773-.386c-.386-.773-.386-1.16-.386-1.932 0-.386.772-1.159 1.159-1.159 0 0 .772 0 .386 1.545 0 1.546-1.16 1.546-1.16 1.546zm65.29 30.52l-3.091 4.25v.386h4.25c.772-2.705-1.16-4.636-1.16-4.636zm-77.266-20.09h-.773l-1.932-.386c-1.931-.386-1.159-3.863-1.159-3.863l-2.318.773c-.772-1.546-4.25-5.795-4.25-5.795l-.772 3.09c.387.387 2.318 3.477 2.704 4.25l-1.158 1.159s-.387.773-.387 1.159-.386.773-.386.773l-1.545.772h-.387l-5.408-4.25v3.091h.386c.386.773 1.159 2.318 3.09 3.091 1.546.773 3.478.773 4.25.386.773.387 1.16.387 1.545.773 1.546.773 1.932.386 1.932.386l2.318-.772h.386l.387-.387.772-1.545s3.864.386 5.409.386c1.545-2.318 6.568-5.795 10.045-6.181 3.477 0 9.271.773 13.907 5.409 4.25 4.636 3.091 10.817 3.091 10.817l8.5 2.704-3.864-2.704c-3.09-7.727-10.43-14.68-10.43-14.68s-1.933-.387-3.092-.387c-1.159-.386-1.931-1.159-1.931-1.159s-.387-.386-1.16-1.545l-.772-1.546s-.772-.772-1.931-1.545-5.41-1.159-7.727-1.545c-2.318-.387-2.318 0-2.318 0 6.568 1.545 8.5 1.931 8.886 2.318 0 0 .386.772.772 1.159-5.408-1.16-10.43-.387-11.59 0a3.51 3.51 0 0 1 0 3.863c-.772.773-3.09 1.932-3.09 1.932zm73.402 27.816l1.16 5.023s1.158-1.16 2.317-2.705 1.545-3.09 1.545-3.09l-4.635.386-.387.386zm-93.105-35.156l-.386 4.25h2.318l.386-2.704v1.545h.386v-2.318h-.386V112.1l3.477 1.931.386.773.773.773h.773l.386-.387v-.386c-2.318 0-2.318-1.159-2.318-1.159s.386-2.704.773-3.477c.386-.773 1.931-.386 1.931-.386l-.386-.387h-.773c-.772-.386-3.09-1.931-3.863-2.317v-.387l.386-.386v-1.545h.387c0-.387.386-.387.386-.773.773 0 6.567-1.16 6.567-1.16l-5.408-1.158v-.386c-1.545-.387-2.704-.773-3.477-1.16-1.932 2.319-2.704 5.41-2.704 5.41s-.387 5.408-.387 6.18c-.386.773.773 1.16.773 1.16zm90.787 30.52l.773 1.16.386-.387 3.09-3.863v-.387c-1.545 0-4.249 3.477-4.249 3.477zm-9.272-6.954l-2.318-.772-5.408 6.181 3.863 1.16c.773-3.092 3.863-6.569 3.863-6.569zm8.113 8.886c-1.931 3.863-1.545 6.568-1.545 6.568l1.932-4.25v-.773c.386 0 0-.772-.387-1.545zm-1.931-25.111s-.773 1.545-1.16 1.931c-.386.387-3.09.773-4.635 1.16-1.546.772-4.25 1.93-5.023 2.704-.386.386-.386 1.545-.386 1.931 0 0 .773.387 1.159.387l-3.477 3.09.773.773 8.499 2.704c1.932-1.545 4.636-1.931 4.636-1.931-1.545-.773-8.113-3.477-10.045-4.25 0 0-1.159-.386-1.159-.773v-1.159s5.023-3.863 12.75-3.863l1.158-2.318-3.09-.386zm5.022 33.997l-1.545-4.636h-.387l-2.318 4.25.387.386c1.931.772 3.863 0 3.863 0zm-58.336-44.042l1.16.386s.772 0 .772-.772v-1.546l-1.16-.772-1.544-.387c.386.387.386.773.386.773h.386c0-.386.387-.386.387 0 0 0 .772.386.386 1.545.386.387-.386.773-.773.773zm-3.477 21.248c-2.704 5.022-.772 8.5-.772 8.5l3.477-5.023v-.772l-2.705-2.705zm-25.111-29.747l4.636 1.159c.386 0 3.09-.386 3.09-.386l-7.34-1.932-.386 1.159zm2.704-1.16c6.181.774 7.34 1.933 7.34 1.933s2.318-.387 3.477-.387c-1.931-1.545-10.43-4.25-10.43-4.25s-.387 1.16-.387 2.705zm9.272 11.977c-1.159.773-2.318 3.09-1.932 5.022s.773 1.932 1.932 1.932c-1.932-.773-1.545-3.863 0-5.795 1.16-1.545 2.318-.386 2.318-.386s-1.159-1.546-2.318-.773zm-27.43 57.177c-5.022 0-10.816 1.931-7.34 7.34 28.589 49.064 58.722 60.654 71.471 66.835 5.795-2.704 15.067-6.954 26.27-14.68 6.568-4.25 5.796-10.818 4.25-15.067-8.113-20.09-52.54-42.883-94.65-44.428zm161.1-91.56c-11.59-8.113-40.178-22.794-96.969-22.794-19.702 0-36.315 1.932-49.45 4.636 3.09 5.023 4.636 10.818 4.636 16.999 0 8.5-3.09 16.226-8.113 22.02 1.16.387 2.705.773 4.636 1.16l.773-1.932s.772 0 1.159.386c0-1.931 1.159-1.931 1.159-1.931s0-.387.386-.387c1.932.387 7.34 3.09 9.658 4.25s2.318 1.545 2.318 1.545 5.409 0 6.954-.386c1.546 0 4.25-1.16 8.113-2.318 3.863-1.16 4.636-1.545 5.409-1.545s7.726.386 13.908 1.159c6.18.772 11.976 3.09 13.135 3.863l1.931.386.387-1.159-3.09-1.159s.385-1.931.385-2.318c0-.386.387-.772.773-.772s3.863.772 5.022 1.159 5.023 3.09 5.409 3.09c.386 0 .386.387.386.387 0 .772-.772 2.318-.772 2.318l-1.16-.387 1.16.387s1.159.386 1.545.772c.386.386 1.545 1.16 2.704 2.318 1.16.773.773 1.932.773 1.932l2.704 2.704v1.16l6.568 6.567v.386l-3.09 1.932s4.249-.387 7.34 1.159c3.09 1.545 3.476 2.318 3.476 3.09-.772.387-1.931.773-1.931.773-2.318.773-8.113 4.636-8.113 4.636v.386l3.09.773c3.477-3.09 9.659-4.25 14.295-3.477 15.84 3.09 26.656 13.521 28.974 22.407 0 .386.387 1.159.387 1.545 15.839-37.087 14.294-63.744 13.135-75.72zm-55.632 56.404c.387.386.773.386 1.16.772 2.317 1.546 3.476 2.318 3.863 5.795.386 2.705-.387 6.568-2.318 10.045 10.817 7.34 25.884 1.545 31.679 7.34-1.16-14.68-22.794-29.36-34.384-23.952zm-88.855-18.93l-.773.386v3.09l.773-.386v-3.09zm111.649 47.904c-8.113 0-16.226-2.704-22.02-9.658v.387c-3.478 4.636-7.341 4.636-8.886 4.636s-6.568-2.318-8.5-4.636c-1.931-2.318-1.931-6.568-1.931-6.568l-7.727-2.704-9.658-5.409-1.545-.386c-3.091 1.545-6.954.386-10.431-2.318-.387 1.545-2.318 5.408-4.636 7.34-2.318 1.932-6.954 4.636-10.431 4.636-3.477 0-11.204-3.863-13.522-9.272-2.318-5.409 0-11.203 0-11.203l-3.863-.773-1.545-1.932s-4.636 3.864-9.658 2.318-9.272-5.795-10.431-9.658c-.773-3.863.386-7.34.772-7.727-.772-2.704-.772-4.25-.772-4.25h-.387v-1.158c-5.022 3.477-10.817 5.022-16.998 5.022-6.954 0-13.522-2.318-18.93-5.795.772 8.5 3.09 18.544 6.181 29.747 4.25 15.454 18.158 20.476 39.02 23.953 45.972 7.34 90.014 42.496 86.923 64.13 11.59-9.658 23.953-23.952 36.315-45.2 5.022-8.113.386-13.522-7.34-13.522zM92.47 110.167l-.386 4.25h2.704v-.387h-.386v-.386h-.386l.386-.773.386-1.931-.386-.387v-.772l.386-.387.387-4.635-1.932-1.16c.773-3.09 2.704-5.794 2.704-5.794H94.79c-1.931 2.318-2.704 5.408-2.704 5.408s-.386 5.023-.386 5.795c0 1.16.772 1.16.772 1.16zm42.497 25.884l1.931 6.181c3.863-2.704 4.636-6.953 4.636-6.953l-6.181.386-.386.386zm3.476-9.658l-3.09 5.409.386.386 6.181.386c0-4.25-3.477-6.181-3.477-6.181zm-38.632-11.976l-.387 2.318h.387v-2.318zm29.36 14.68l3.091 2.318.773-.386 3.477-5.409c-4.25-.386-7.34 3.477-7.34 3.477zm-28.588-14.294l-.386-.386v2.704h.386v-2.318zm1.16.773l-.387 2.704h.386v-2.704zm.772.386l-.386 2.704h.386v-2.704zm-1.545-.773l-.387 2.705h.387v-2.705z"/><path id="path24" class="st2" d="M248.162 78.102c1.159 14.294 3.09 49.45-25.498 98.9-28.202 49.064-58.722 60.654-71.47 66.835v-7.34c23.565-12.75 44.04-33.225 60.267-65.676 18.93-37.474 21.248-67.994 19.702-83.447l16.999-9.272z"/><linearGradient id="path31_1_" gradientUnits="userSpaceOnUse" x1="101.743" y1="31.541" x2="248.405" y2="31.541" gradientTransform="translate(0 39.8)"><stop offset="0" stop-color="#fff"/><stop offset="1" stop-color="#fff" stop-opacity="0"/></linearGradient><path id="path31" class="st3" d="M248.162 78.102c-11.59-8.113-40.178-22.794-96.969-22.794-19.702 0-36.315 1.932-49.45 4.636 2.705 4.25 4.25 9.272 4.636 14.68 14.68-2.703 30.52-4.249 47.519-3.862 36.314.386 65.675 8.499 77.652 16.612l16.612-9.272"/><radialGradient id="circle40_1_" cx="66.699" cy="27.489" r="32.011" gradientTransform="translate(0 39.8)" gradientUnits="userSpaceOnUse"><stop offset="0" stop-color="#fff"/><stop offset=".679" stop-color="#7a7a7a"/><stop offset="1" stop-color="#404040"/></radialGradient><circle id="circle40" class="st4" cx="73.155" cy="76.943" r="23.952"/></g></svg>